<svg width="512" height="512" viewBox="0 0 512 512" fill="none" xmlns="http://www.w3.org/2000/svg"><g transform="translate(256,256) scale(1.30) translate(-256,-256)">
<rect width="512" height="512" fill="#22242F"/>
<g>
<path d="M371.378 5.36865L98.6667 12.3116L372.876 25.4587L371.378 5.36865Z" fill="#E13F3C"/>
<path d="M371.353 20.937L94.1714 27.9938L372.876 41.3564L371.353 20.937Z" fill="#E13F3C"/>
<path d="M371.525 38.354L125.638 44.6141L372.876 56.468L371.525 38.354Z" fill="#E13F3C"/>
<path d="M371.353 51.0522L94.1714 58.1091L372.876 71.4716L371.353 51.0522Z" fill="#E13F3C"/>
<path d="M371.116 66.6748L50.7175 74.8319L372.876 90.2778L371.116 66.6748Z" fill="#E13F3C"/>
<path d="M241.491 102.461L55.2127 107.203L242.514 116.184L241.491 102.461Z" fill="#E13F3C"/>
<path d="M227.759 115.502L-3.2254 121.198L229.029 131.984L227.759 115.502Z" fill="#E13F3C"/>
<path d="M207.097 135.308L11.7587 140.281L208.171 149.698L207.097 135.308Z" fill="#E13F3C"/>
<path d="M187.785 153.895L44.7238 157.537L188.571 164.434L187.785 153.895Z" fill="#E13F3C"/>
<path d="M402.095 71.2992L333.168 68.3024C321.181 36.5363 356.893 12.3615 371.378 5.36865C414.832 5.36865 417.829 13.6099 423.073 32.3404L402.095 71.2992Z" fill="#E13F3C"/>
<path d="M215.543 95.2729L239.517 105.762L171.34 171.692L148.863 167.197L215.543 95.2729Z" fill="#22242F"/>
<path d="M387.657 52.8641C397.092 44.5954 408.97 19.907 423.596 32.0417C425.784 43.7497 425.153 49.8439 423.806 61.7809L429.816 74.0463L423.716 77.506C412.139 107.547 417.667 101.187 391.492 94.8044C382.184 100.541 375.462 106.952 372.636 118.013C367.732 137.217 379.125 172.433 359.461 184.758C354.435 187.908 343.103 191.901 339.271 194.651C323.166 206.205 308.624 224.935 294.942 237.531C290.383 237.384 285.298 237.102 280.782 237.15C314.162 251.902 344.36 265.055 373.104 286.586C420.644 322.47 406.614 337.697 359.71 356.151C320.426 371.612 265.515 387.853 240.031 423.026C232.954 432.788 233.84 447.092 221.83 445.123C219.446 443.242 218.319 442.219 218.048 438.721C216.918 425.267 223.161 413.118 227.108 400.647C228.717 394.685 228.134 377.361 232.246 373.181C235.944 369.42 254.875 372.674 261.492 370.619C291.208 361.373 308.113 330.196 339.49 323.882C345.569 322.654 350.754 321.875 356.936 321.202C318.926 309.91 238.152 303.1 217.395 267.129C212.363 258.41 211.431 243.913 214.969 234.062C224.542 207.423 255.688 203.823 271.882 184.679C282.227 172.45 288.755 151.967 295.157 137.288C306.543 134.628 316.837 132.39 327.924 128.541C301.321 126.562 273.558 120.856 247.024 118.638C234.839 128.329 222.6 137.954 210.309 147.511C203.254 153.015 190.372 162.462 184.969 168.808C184.816 178.269 185.306 184.438 182.353 193.385C165.49 207.301 157.951 203.035 148.114 183.458C151.895 177.683 159.991 168.312 165.208 163.754C186.062 145.539 213.124 105.461 236.527 92.9941C258.597 92.7818 280.667 92.7185 302.738 92.8042C329.256 92.813 343.224 97.1164 364.095 77.7241C366.099 76.2833 370.668 71.5881 372.659 69.6492C364.06 54.2155 368.666 41.3442 387.657 52.8641Z" fill="#EFEFE4"/>
<path d="M202.336 268.495C206.143 272.904 207.613 278.29 210.979 282.416C221.045 294.748 235.708 301.646 250.006 307.576C227.338 328.298 206.118 351.868 181.778 370.961C173.686 377.536 161.191 381.731 153.218 387.975C115.47 417.506 72.7206 445.7 42.2418 483.016C34.9059 492.587 33.6186 503.318 25.7133 506.742C21.5601 506.47 23.4744 507.045 19.8185 504.733C16.9858 490.264 25.5163 474.489 28.6036 461.367C36.627 427.262 27.8244 432.256 60.3978 430.852C82.1297 416.178 94.557 383.711 115.487 366.053C125.115 356.55 150.039 353.146 157.413 342.181C173.07 318.894 187.72 292.523 202.336 268.495Z" fill="#EFEFE4"/>
<path d="M497.19 121.649C503.535 123.741 513.657 139.637 512.061 147.219C506.845 154.252 491.132 166.233 483.531 172.615C464.661 188.458 444.371 210.309 423.154 222.043L421.641 221.586C420.325 221.198 417.689 220.365 416.6 219.851C409.153 216.339 382.571 184.253 380.368 178.071C382.354 166.631 382.271 138.315 382.478 125.263C395.549 147.926 408.6 167.99 422.926 189.772C439.181 178.73 464.853 166.83 478.543 155.102C477.951 133.939 479.532 132.779 497.19 121.649Z" fill="#EFEFE4"/>
</g>
</g></svg>
