<svg width="512" height="512" viewBox="0 0 512 512" fill="none" xmlns="http://www.w3.org/2000/svg">
<g>
<g>
<path d="M307.479 -12.542L-31.3954 -3.91454L309.341 12.4221L307.479 -12.542Z" fill="#E13F3C"/>
<path d="M307.449 6.80371L-36.9813 15.5726L309.341 32.1771L307.449 6.80371Z" fill="#E13F3C"/>
<path d="M307.662 28.4463L2.11957 36.2251L309.341 50.9549L307.662 28.4463Z" fill="#E13F3C"/>
<path d="M307.449 44.2256L-36.9813 52.9945L309.341 69.599L307.449 44.2256Z" fill="#E13F3C"/>
<path d="M307.154 63.6382L-90.9778 73.7743L309.341 92.9676L307.154 63.6382Z" fill="#E13F3C"/>
<path d="M146.08 108.106L-85.3919 114L147.352 125.158L146.08 108.106Z" fill="#E13F3C"/>
<path d="M129.017 124.311L-158.008 131.389L130.594 144.792L129.017 124.311Z" fill="#E13F3C"/>
<path d="M103.342 148.922L-139.388 155.102L104.676 166.803L103.342 148.922Z" fill="#E13F3C"/>
<path d="M79.3447 172.019L-98.4256 176.544L80.3214 185.114L79.3447 172.019Z" fill="#E13F3C"/>
<path d="M345.649 69.3842L259.999 65.6603C245.104 26.1873 289.48 -3.85264 307.479 -12.542C361.476 -12.542 365.2 -2.30128 371.716 20.9735L345.649 69.3842Z" fill="#E13F3C"/>
<path d="M113.836 99.1743L143.628 112.208L58.909 194.134L30.9798 188.548L113.836 99.1743Z" fill="#22242F"/>
<path d="M327.707 46.4768C339.432 36.202 354.192 5.52385 372.366 20.6026C375.084 35.1512 374.301 42.7239 372.627 57.5569L380.095 72.7981L372.515 77.0971C358.13 114.427 364.998 106.524 332.474 98.5924C320.907 105.721 312.555 113.687 309.043 127.432C302.949 151.295 317.105 195.054 292.671 210.371C286.426 214.284 272.344 219.246 267.583 222.663C247.571 237.021 229.501 260.295 212.499 275.946C206.833 275.764 200.516 275.414 194.904 275.474C236.382 293.804 273.906 310.149 309.624 336.903C368.698 381.493 351.265 400.414 292.98 423.346C244.165 442.557 175.932 462.739 144.266 506.444C135.472 518.575 136.573 536.349 121.649 533.903C118.687 531.566 117.287 530.294 116.95 525.948C115.546 509.23 123.303 494.133 128.207 478.636C130.207 471.228 129.482 449.702 134.592 444.507C139.187 439.833 162.711 443.877 170.933 441.323C207.859 429.835 228.866 391.093 267.855 383.247C275.409 381.722 281.851 380.754 289.534 379.918C242.302 365.886 141.931 357.423 116.138 312.726C109.885 301.891 108.727 283.877 113.123 271.636C125.019 238.534 163.722 234.06 183.844 210.272C196.699 195.076 204.811 169.624 212.765 151.383C226.914 148.078 239.706 145.296 253.483 140.514C220.426 138.055 185.927 130.964 152.956 128.209C137.815 140.25 122.606 152.21 107.333 164.086C98.5666 170.925 82.5594 182.665 75.8452 190.55C75.6553 202.306 76.2642 209.972 72.5943 221.09C51.6399 238.382 42.2725 233.081 30.0488 208.754C34.7465 201.578 44.8066 189.934 51.2899 184.27C77.2026 161.636 110.831 111.835 139.911 96.343C167.336 96.0791 194.76 96.0004 222.187 96.1069C255.138 96.1179 272.495 101.465 298.43 77.3682C300.919 75.5778 306.596 69.7436 309.071 67.3342C298.385 48.1561 304.109 32.162 327.707 46.4768Z" fill="#EFEFE4"/>
<path d="M97.4253 314.422C102.156 319.902 103.983 326.593 108.165 331.721C120.674 347.045 138.895 355.616 156.661 362.985C128.494 388.734 102.125 418.023 71.8793 441.747C61.8248 449.918 46.298 455.131 36.3906 462.89C-10.5158 499.585 -63.6364 534.62 -101.51 580.99C-110.625 592.882 -112.225 606.217 -122.048 610.472C-127.209 610.133 -124.83 610.848 -129.373 607.975C-132.893 589.996 -122.293 570.393 -118.457 554.088C-108.487 511.708 -119.425 517.914 -78.9489 516.17C-51.9445 497.935 -36.5023 457.591 -10.494 435.65C1.4692 423.841 32.4408 419.611 41.604 405.985C61.0595 377.049 79.2638 344.28 97.4253 314.422Z" fill="#EFEFE4"/>
<path d="M463.816 131.949C471.699 134.549 484.277 154.302 482.294 163.722C475.812 172.462 456.288 187.351 446.842 195.281C423.395 214.967 398.182 242.12 371.817 256.701L369.936 256.133C368.301 255.651 365.026 254.615 363.673 253.977C354.419 249.612 321.388 209.742 318.651 202.06C321.118 187.844 321.015 152.658 321.272 136.44C337.514 164.601 353.732 189.533 371.534 216.6C391.732 202.879 423.633 188.092 440.644 173.518C439.908 147.221 441.873 145.779 463.816 131.949Z" fill="#EFEFE4"/>
</g>
</g>
</svg>
