<svg width="512" height="512" viewBox="0 0 512 512" fill="none" xmlns="http://www.w3.org/2000/svg"><g transform="translate(256,256) scale(1.12) translate(-256,-256)">
<path d="M356.956 40.3223L118.333 46.3974L358.267 57.901L356.956 40.3223Z" fill="#E13F3C"/>
<path d="M356.934 53.9448L114.4 60.1195L358.267 71.8118L356.934 53.9448Z" fill="#E13F3C"/>
<path d="M357.084 69.1846L141.933 74.6621L358.267 85.0343L357.084 69.1846Z" fill="#E13F3C"/>
<path d="M356.934 80.2954L114.4 86.4701L358.267 98.1624L356.934 80.2954Z" fill="#E13F3C"/>
<path d="M356.726 93.9653L76.3778 101.103L358.267 114.618L356.726 93.9653Z" fill="#E13F3C"/>
<path d="M243.304 125.278L80.3111 129.428L244.2 137.286L243.304 125.278Z" fill="#E13F3C"/>
<path d="M231.29 136.689L29.1778 141.673L232.4 151.111L231.29 136.689Z" fill="#E13F3C"/>
<path d="M213.21 154.019L42.2889 158.371L214.149 166.61L213.21 154.019Z" fill="#E13F3C"/>
<path d="M196.312 170.283L71.1333 173.47L197 179.504L196.312 170.283Z" fill="#E13F3C"/>
<path d="M383.833 98.0115L323.522 95.3893C313.033 67.5939 344.282 46.441 356.956 40.3223C394.978 40.3223 397.6 47.5334 402.189 63.9226L383.833 98.0115Z" fill="#E13F3C"/>
<path d="M220.6 118.989L241.578 128.167L181.922 185.855L162.256 181.922L220.6 118.989Z" fill="#22242F"/>
<path d="M371.199 81.8808C379.456 74.6457 389.849 53.0433 402.646 63.6612C404.561 73.9057 404.009 79.2381 402.83 89.683L408.089 100.415L402.751 103.442C392.622 129.728 397.458 124.163 374.556 118.579C366.411 123.598 360.53 129.208 358.057 138.886C353.766 155.69 363.734 186.503 346.528 197.288C342.131 200.044 332.215 203.538 328.862 205.944C314.771 216.054 302.046 232.443 290.074 243.464C286.085 243.336 281.636 243.089 277.684 243.131C306.892 256.039 333.315 267.548 358.466 286.388C400.064 317.786 387.788 331.11 346.746 347.257C312.373 360.785 264.326 374.996 242.027 405.772C235.835 414.314 236.61 426.83 226.101 425.107C224.015 423.462 223.029 422.566 222.792 419.506C221.804 407.733 227.266 397.103 230.719 386.191C232.127 380.974 231.617 365.816 235.215 362.158C238.451 358.867 255.015 361.715 260.805 359.916C286.807 351.826 301.599 324.546 329.054 319.021C334.373 317.947 338.909 317.266 344.319 316.677C311.06 306.796 240.383 300.837 222.22 269.363C217.818 261.733 217.002 249.048 220.098 240.429C228.475 217.12 255.727 213.97 269.896 197.219C278.948 186.519 284.661 168.596 290.262 155.752C300.225 153.425 309.232 151.466 318.933 148.098C295.656 146.367 271.364 141.374 248.146 139.433C237.484 147.912 226.775 156.334 216.02 164.697C209.848 169.512 198.576 177.779 193.848 183.332C193.714 191.61 194.143 197.008 191.559 204.836C176.804 217.013 170.207 213.28 161.6 196.15C164.908 191.097 171.992 182.898 176.557 178.909C194.804 162.971 218.484 127.903 238.961 116.995C258.272 116.809 277.583 116.753 296.896 116.828C320.099 116.836 332.321 120.602 350.584 103.633C352.336 102.373 356.334 98.2643 358.077 96.5677C350.552 83.0633 354.582 71.8008 371.199 81.8808Z" fill="#EFEFE4"/>
<path d="M209.044 270.558C212.375 274.416 213.662 279.128 216.606 282.739C225.414 293.53 238.245 299.565 250.756 304.754C230.921 322.885 212.353 343.509 191.055 360.215C183.975 365.968 173.042 369.64 166.066 375.103C133.036 400.942 95.6305 425.612 68.9616 458.264C62.5427 466.638 61.4163 476.028 54.4991 479.024C50.8651 478.786 52.5401 479.289 49.3412 477.266C46.8626 464.606 54.3267 450.803 57.0281 439.321C64.0486 409.479 56.3464 413.849 84.8481 412.62C103.864 399.781 114.737 371.372 133.051 355.921C141.475 347.606 163.284 344.628 169.737 335.033C183.437 314.657 196.255 291.583 209.044 270.558Z" fill="#EFEFE4"/>
<path d="M467.042 142.068C472.593 143.898 481.449 157.808 480.053 164.441C475.489 170.596 461.741 181.079 455.09 186.663C438.579 200.526 420.825 219.646 402.26 229.913L400.935 229.513C399.784 229.174 397.478 228.445 396.525 227.995C390.009 224.922 366.75 196.847 364.822 191.437C366.559 181.427 366.487 156.65 366.668 145.23C378.105 165.06 389.525 182.616 402.06 201.676C416.283 192.014 438.747 181.601 450.725 171.339C450.207 152.821 451.59 151.807 467.042 142.068Z" fill="#EFEFE4"/>
</g></svg>
