<svg width="512" height="512" viewBox="0 0 512 512" fill="none" xmlns="http://www.w3.org/2000/svg">
<rect width="512" height="512" fill="#22242F"/>
<path d="M333 91.5L151 96.1336L334 104.908L333 91.5Z" fill="#E13F3C"/>
<path d="M332.984 101.89L148 106.6L334 115.517L332.984 101.89Z" fill="#E13F3C"/>
<path d="M333.098 113.514L169 117.691L334 125.602L333.098 113.514Z" fill="#E13F3C"/>
<path d="M332.984 121.988L148 126.698L334 135.616L332.984 121.988Z" fill="#E13F3C"/>
<path d="M332.825 132.414L119 137.858L334 148.166L332.825 132.414Z" fill="#E13F3C"/>
<path d="M246.317 156.297L122 159.462L247 165.455L246.317 156.297Z" fill="#E13F3C"/>
<path d="M237.153 165L83 168.802L238 176L237.153 165Z" fill="#E13F3C"/>
<path d="M223.364 178.218L93 181.537L224.08 187.821L223.364 178.218Z" fill="#E13F3C"/>
<path d="M210.475 190.623L115 193.053L211 197.656L210.475 190.623Z" fill="#E13F3C"/>
<path d="M353.5 135.5L307.5 133.5C299.5 112.3 323.333 96.1668 333 91.5C362 91.5 364 97 367.5 109.5L353.5 135.5Z" fill="#E13F3C"/>
<path d="M229 151.5L245 158.5L199.5 202.5L184.5 199.5L229 151.5Z" fill="#22242F"/>
<path d="M343.864 123.197C350.161 117.679 358.088 101.203 367.849 109.301C369.309 117.115 368.888 121.182 367.989 129.148L372 137.334L367.929 139.643C360.203 159.691 363.892 155.447 346.424 151.187C340.212 155.016 335.726 159.294 333.84 166.676C330.567 179.492 338.17 202.994 325.047 211.22C321.693 213.322 314.13 215.987 311.573 217.822C300.825 225.533 291.12 238.033 281.989 246.439C278.946 246.341 275.553 246.153 272.539 246.185C294.816 256.03 314.969 264.808 334.152 279.177C365.879 303.125 356.516 313.287 325.213 325.603C298.996 335.921 262.35 346.76 245.343 370.233C240.62 376.748 241.211 386.294 233.196 384.98C231.605 383.725 230.853 383.042 230.672 380.708C229.918 371.729 234.084 363.621 236.718 355.298C237.792 351.319 237.403 339.758 240.147 336.968C242.615 334.458 255.249 336.63 259.665 335.258C279.497 329.088 290.779 308.281 311.719 304.067C315.776 303.248 319.236 302.728 323.362 302.279C297.995 294.743 244.089 290.198 230.236 266.192C226.878 260.373 226.256 250.698 228.617 244.124C235.006 226.346 255.792 223.943 266.599 211.167C273.503 203.006 277.86 189.336 282.132 179.54C289.731 177.765 296.601 176.27 304 173.702C286.246 172.381 267.718 168.573 250.01 167.093C241.878 173.56 233.71 179.984 225.507 186.362C220.799 190.035 212.202 196.34 208.596 200.575C208.494 206.889 208.821 211.006 206.85 216.977C195.596 226.264 190.565 223.417 184 210.352C186.523 206.498 191.926 200.244 195.408 197.202C209.325 185.046 227.386 158.299 243.004 149.979C257.733 149.837 272.462 149.795 287.192 149.852C304.889 149.858 314.211 152.73 328.14 139.788C329.477 138.827 332.526 135.693 333.855 134.399C328.116 124.099 331.19 115.509 343.864 123.197Z" fill="#EFEFE4"/>
<path d="M220.186 267.103C222.727 270.046 223.708 273.64 225.954 276.394C232.672 284.624 242.458 289.227 252 293.185C236.872 307.014 222.71 322.744 206.466 335.486C201.066 339.874 192.727 342.674 187.406 346.841C162.214 366.549 133.684 385.365 113.344 410.269C108.448 416.656 107.589 423.818 102.313 426.103C99.5412 425.921 100.819 426.305 98.3789 424.762C96.4884 415.106 102.181 404.578 104.242 395.821C109.596 373.06 103.722 376.393 125.46 375.456C139.964 365.663 148.257 343.995 162.226 332.211C168.651 325.869 185.285 323.597 190.206 316.279C200.655 300.738 210.432 283.139 220.186 267.103Z" fill="#EFEFE4"/>
<path d="M416.964 169.103C421.198 170.499 427.953 181.108 426.888 186.167C423.407 190.861 412.921 198.857 407.848 203.116C395.255 213.689 381.714 228.272 367.554 236.103L366.544 235.798C365.666 235.539 363.907 234.983 363.18 234.64C358.21 232.296 340.47 210.883 339 206.757C340.325 199.122 340.27 180.225 340.408 171.514C349.131 186.639 357.841 200.029 367.402 214.566C378.25 207.197 395.383 199.255 404.519 191.428C404.124 177.304 405.179 176.53 416.964 169.103Z" fill="#EFEFE4"/>
</svg>
